<?xml version="1.0" standalone="no"?>
<!DOCTYPE svg PUBLIC "-//W3C//DTD SVG 20010904//EN"
 "http://www.w3.org/TR/2001/REC-SVG-20010904/DTD/svg10.dtd">
<svg version="1.0" xmlns="http://www.w3.org/2000/svg"
 width="608.000000pt" height="608.000000pt" viewBox="0 0 608.000000 608.000000"
 preserveAspectRatio="xMidYMid meet">
<metadata>
Created by potrace 1.14, written by Peter Selinger 2001-2017
</metadata>
<g transform="translate(0.000000,608.000000) scale(0.100000,-0.100000)"
fill="#000000" stroke="none">
<path d="M2752 5584 c3 -3 -57 -114 -135 -247 -77 -133 -150 -260 -163 -282
-48 -85 -75 -131 -92 -160 -9 -16 -51 -88 -91 -160 -41 -71 -79 -133 -85 -137
-6 -4 -8 -8 -4 -8 3 0 -17 -39 -46 -87 -29 -49 -55 -95 -59 -103 -5 -8 -13
-24 -20 -35 -16 -26 -117 -202 -137 -237 -8 -15 -39 -68 -67 -118 -29 -49 -77
-131 -105 -180 -29 -50 -60 -103 -68 -118 -8 -15 -27 -47 -41 -72 -15 -25 -26
-48 -25 -51 0 -4 -6 -15 -15 -25 -9 -11 -69 -111 -133 -222 -65 -112 -126
-218 -136 -235 -10 -18 -44 -77 -75 -132 -32 -55 -65 -113 -75 -130 -26 -44
-91 -157 -104 -180 -45 -78 -139 -243 -146 -255 -47 -76 -90 -151 -90 -155 0
-3 -18 -34 -40 -70 -22 -36 -40 -68 -40 -71 0 -3 -10 -19 -21 -36 -12 -16 -31
-48 -44 -71 -47 -87 -60 -111 -68 -121 -12 -16 -237 -407 -248 -431 -5 -11
-18 -33 -29 -50 -11 -16 -23 -36 -27 -44 -3 -8 -35 -64 -71 -125 -36 -61 -76
-131 -90 -156 -14 -25 -33 -57 -43 -72 -11 -14 -19 -28 -19 -31 0 -3 -20 -40
-45 -82 -25 -42 -46 -81 -48 -87 -1 -6 10 -18 25 -27 64 -39 143 -85 148 -86
3 0 16 -8 30 -16 64 -41 292 -169 301 -169 5 0 9 -4 9 -9 0 -5 8 -11 18 -13
13 -3 35 27 89 122 40 69 79 134 88 145 8 10 15 23 15 27 0 4 17 36 38 70 21
35 42 70 46 78 10 21 34 64 79 140 21 36 42 72 46 80 5 8 28 46 50 83 23 38
41 70 41 73 0 2 20 38 45 78 25 41 45 78 45 82 0 4 6 15 14 23 7 9 26 41 42
71 16 30 31 57 34 60 3 3 11 16 18 29 40 71 57 99 73 126 11 17 22 37 26 45 3
8 16 31 28 50 12 19 39 67 60 105 21 39 44 77 51 86 8 8 14 18 14 21 0 3 30
57 66 119 69 119 80 138 163 284 28 50 55 97 61 105 22 36 203 350 245 425 15
28 34 58 43 68 8 9 12 17 8 17 -4 0 1 12 12 28 18 26 197 334 231 397 9 16 18
32 21 35 3 3 12 19 20 35 8 17 17 32 20 35 3 3 10 14 16 25 38 69 66 118 88
154 14 22 26 43 26 45 0 2 21 40 46 83 26 43 56 94 67 113 11 19 62 109 115
200 52 91 129 224 170 295 41 72 78 135 82 140 4 6 21 35 37 65 17 30 90 157
162 282 72 125 131 231 131 236 0 5 -10 14 -22 20 -13 6 -45 25 -73 42 -27 17
-57 33 -65 37 -8 3 -26 14 -40 23 -14 9 -50 31 -80 47 -30 17 -102 58 -160 92
-92 53 -136 74 -118 55z"/>
<path d="M4407 3623 c-7 -16 -40 -73 -72 -128 -59 -103 -224 -386 -255 -440
-9 -16 -61 -106 -115 -200 -54 -93 -105 -183 -114 -200 -9 -16 -19 -32 -22
-35 -3 -3 -23 -36 -44 -75 -21 -38 -45 -81 -54 -95 -10 -14 -28 -46 -42 -72
-13 -27 -27 -48 -31 -48 -5 0 -8 -4 -8 -10 0 -5 -45 -86 -100 -181 -55 -94
-100 -174 -100 -176 0 -2 -17 -32 -39 -66 -21 -34 -83 -141 -139 -237 -55 -96
-108 -189 -119 -207 -10 -17 -45 -78 -78 -135 -33 -57 -68 -116 -77 -133 -10
-16 -29 -50 -43 -75 -14 -25 -29 -52 -35 -60 -24 -38 -90 -152 -90 -156 0 -3
-11 -22 -25 -44 l-24 -39 49 -30 c28 -17 55 -31 60 -31 6 0 10 -3 10 -7 0 -5
23 -19 50 -32 28 -14 50 -29 50 -33 0 -4 5 -8 11 -8 6 0 58 -28 117 -63 59
-35 114 -66 122 -70 8 -4 30 -16 49 -28 18 -11 34 -19 36 -17 3 4 86 147 105
180 8 16 39 68 68 118 28 49 52 94 52 99 0 5 3 11 8 13 6 3 57 87 123 204 10
18 29 51 43 73 15 22 26 42 26 45 0 2 37 66 81 142 45 77 95 164 112 194 17
30 48 84 70 120 22 36 50 83 62 105 48 88 79 141 96 167 11 14 19 29 19 32 0
4 12 25 26 47 14 23 37 62 51 87 15 26 33 59 42 74 57 96 81 139 81 148 0 5 5
10 10 10 6 0 10 8 10 17 0 27 21 0 81 -102 28 -49 59 -103 69 -120 10 -16 41
-70 69 -118 28 -49 51 -93 51 -98 0 -5 5 -9 10 -9 6 0 10 -4 10 -10 0 -5 14
-33 31 -62 18 -29 41 -69 52 -88 32 -58 207 -360 252 -435 23 -38 45 -77 48
-85 4 -8 20 -36 35 -61 15 -25 64 -111 110 -190 46 -79 88 -151 93 -159 30
-50 99 -171 99 -176 0 -3 14 -25 30 -49 17 -24 30 -47 30 -50 0 -4 9 -20 21
-36 20 -29 22 -29 45 -14 13 8 45 27 71 41 26 15 81 46 120 70 40 24 75 44 77
44 2 0 34 18 70 40 36 22 70 40 76 40 5 0 10 4 10 8 0 5 12 14 28 21 15 7 37
19 50 27 21 14 22 17 9 37 -8 12 -29 49 -47 82 -18 33 -51 88 -72 123 -21 34
-38 66 -38 71 0 5 -3 11 -7 13 -5 2 -17 21 -28 43 -11 22 -26 46 -32 53 -7 7
-13 20 -13 28 0 8 -4 14 -9 14 -5 0 -12 11 -15 25 -4 14 -11 25 -16 25 -6 0
-10 4 -10 10 0 5 -30 62 -67 125 -38 63 -77 132 -88 153 -11 20 -31 55 -44 77
-28 44 -35 57 -76 130 -16 28 -39 67 -52 87 -12 21 -23 42 -23 48 0 5 -4 10
-10 10 -5 0 -10 4 -10 9 0 5 -32 65 -72 133 -39 67 -88 152 -108 188 -20 36
-87 152 -149 258 -61 106 -120 207 -130 225 -28 48 -110 190 -121 207 -5 8
-21 38 -36 65 -14 28 -32 57 -40 66 -8 8 -14 18 -14 22 0 4 -44 82 -98 174
-55 93 -101 173 -103 178 -12 30 -103 175 -110 175 -4 0 -14 -12 -22 -27z"/>
</g>
</svg>
